<mxfile host="app.diagrams.net" modified="2024-04-01T03:07:03.373Z" agent="Mozilla/5.0 (Windows NT 10.0; Win64; x64) AppleWebKit/537.36 (KHTML, like Gecko) Chrome/123.0.0.0 Safari/537.36" version="24.2.1" etag="uT0-Z9lEpi64HT-5d78f" type="github">
  <diagram name="Trang-1" id="glpUnwe-d-FHFiN7pNbO">
    <mxGraphModel>
      <root>
        <mxCell id="0" />
        <mxCell id="1" parent="0" />
      </root>
    </mxGraphModel>
  </diagram>
</mxfile>
